<?xml version="1.0" encoding="UTF-8" standalone="no"?>
<svg
   xmlns:dc="http://purl.org/dc/elements/1.1/"
   xmlns:cc="http://creativecommons.org/ns#"
   xmlns:rdf="http://www.w3.org/1999/02/22-rdf-syntax-ns#"
   xmlns:svg="http://www.w3.org/2000/svg"
   xmlns="http://www.w3.org/2000/svg"
   version="1.1"
   id="svg2"
   width="1020"
   height="290"
   viewBox="0 0 1020 290">
  <metadata
     id="metadata8">
    <rdf:RDF>
      <cc:Work
         rdf:about="">
        <dc:format>image/svg+xml</dc:format>
        <dc:type
           rdf:resource="http://purl.org/dc/dcmitype/StillImage" />
        <dc:title></dc:title>
      </cc:Work>
    </rdf:RDF>
  </metadata>
  <defs
     id="defs6" />
  <path
     id="rect4359"
     d="M 79.19569,4.606925 V 247.15817 c 0,4.11281 -3.40227,7.42441 -7.62794,7.42441 H 54.527077 c -4.22567,0 -7.62795,-3.3116 -7.62795,-7.42441 V 172.11033 H 10.74424 v 94.62304 c 0,11.3221 9.136307,20.43801 20.484987,20.43801 H 96.2468 c 11.34869,0 20.48499,-9.11591 20.48499,-20.43801 V 4.606925 Z m 91.77365,0 c -20.67247,0 -37.31517,9.6757 -37.31517,21.69398 V 263.58825 c 0,12.01828 9.40095,23.58313 30.07341,23.58313 h 70.2832 v -32.5888 h -53.2634 c -5.35045,0 -9.658,-4.32471 -9.658,-9.69626 V 214.7033 c 0,-5.37155 4.30755,-9.69626 9.658,-9.69626 h 53.2634 v -32.2235 h -52.64064 c -5.69554,0 -10.28076,-4.60276 -10.28076,-10.32079 v -32.1313 c 0,-5.718 4.58522,-10.32077 10.28076,-10.32077 h 52.64064 V 4.606925 Z m 101.87525,0 c -10.87666,0 -19.63261,9.11591 -19.63261,20.43802 V 266.73337 c 0,11.3221 8.75595,20.43801 19.63261,20.43801 h 62.31256 c 10.87664,0 19.63435,-9.11591 19.63435,-20.43801 V 25.044945 c 0,-11.32211 -8.75771,-20.43802 -19.63435,-20.43802 z m 100.70453,0 V 287.17138 h 36.33232 v -81.4233 h 40.07585 c 13.94449,0 25.17134,-8.69328 25.17134,-19.49344 V 139.52848 137.97332 30.070515 c 0,-14.10677 -14.65494,-25.46359 -32.85844,-25.46359 z m 153.19033,0 c -12.01836,0 -22.42143,8.22722 -23.32393,18.44797 l -23.3222,264.116485 h 36.31667 l 7.60881,-82.36961 h 32.67404 l 7.6088,82.36961 h 39.94539 L 576.93777,23.054895 C 575.881,12.834145 565.35559,4.606925 553.33723,4.606925 h -0.81063 -24.97825 z m 89.20608,0 V 287.17138 l 34.51276,-0.002 v -82.75754 h 19.82222 c 8.65312,0.66146 15.9613,7.4427 16.59533,15.78645 l 5.0882,66.97283 h 38.23192 l -7.97585,-69.91789 c -1.67577,-14.69131 -6.51489,-21.01236 -13.54592,-28.04335 6.64315,-6.64314 10.63564,-9.05905 10.63564,-16.8041 V 167.33449 30.069755 c 0,-14.10679 -13.69872,-25.46359 -30.7153,-25.46359 h -72.649 z m 127.47104,0 V 287.17138 h 70.4328 c 16.4981,0 29.77942,-11.3568 29.77942,-25.46359 V 30.070515 c 0,-14.10678 -13.28132,-25.46359 -29.77942,-25.46359 z m 113.30237,0 V 172.37648 c 0,16.70919 13.17052,30.16037 29.53067,30.16037 h 38.9052 v 45.69984 c 0,2.77535 -2.9013,5.00991 -6.5043,5.00991 -2.34874,1.8e-4 -4.73489,-7e-5 -7.12692,0 -8.37283,2.7e-4 -16.81806,0 -23.98322,0 v 33.92478 h 37.61094 5.1212 c 16.1421,0 29.13759,-9.39108 29.13759,-21.05555 V 4.606925 H 925.15481 V 123.63244 c 3e-4,0.0182 0,0.0357 0,0.0539 v 47.08799 h -25.97335 c -3.69042,-1e-5 -6.66075,-3.52043 -6.66075,-7.8941 V 4.606925 Z m 120.57026,0 V 202.52295 h 33.455 V 4.606925 Z M 650.45829,118.67645 h 22.58288 c 5.29014,0 9.55015,5.09383 9.55015,11.4219 v 29.92729 c 0,6.3281 -4.26001,11.42203 -9.55015,11.42193 h -22.58288 z m 125.58188,0 h 24.57467 c 5.75673,0 10.3921,5.40811 10.3921,12.12643 v 110.31729 c 0,6.71833 -4.63537,12.12653 -10.3921,12.12643 h -24.57467 z m -237.1795,0.88717 h 2.9903 c 3.85946,0 7.16292,2.11146 7.40527,4.73506 l 4.4063,47.69336 H 527.0491 l 4.40629,-47.69336 c 0.24234,-2.6236 3.54581,-4.73506 7.40528,-4.73506 z m -237.20037,0.4488 h 4.68114 c 6.04539,3.2e-4 10.91223,4.34068 10.91223,9.73281 v 115.10454 c 0,5.39213 -4.86684,9.73281 -10.91223,9.73281 h -4.68114 c -6.0454,0 -10.91222,-4.34068 -10.91222,-9.73281 V 129.74523 c 0,-5.39213 4.86682,-9.73312 10.91222,-9.73281 z m 108.22114,0.57754 h 21.46434 c 4.23345,0 7.64187,4.35564 7.64187,9.76412 v 32.66707 c 0,5.40848 -3.40842,9.76239 -7.64187,9.76239 h -21.46434 z m 567.40776,93.72368 v 31.75035 h 33.455 v -31.75035 z"
     style="fill:#ffffff;fill-opacity:1;fill-rule:nonzero;stroke:none;stroke-width:1.25;stroke-linecap:round;stroke-linejoin:round;stroke-miterlimit:4;stroke-dasharray:none;stroke-opacity:1" />
</svg>
