<?xml version="1.0" encoding="UTF-8" standalone="no"?>
<svg
   xmlns:dc="http://purl.org/dc/elements/1.1/"
   xmlns:cc="http://creativecommons.org/ns#"
   xmlns:rdf="http://www.w3.org/1999/02/22-rdf-syntax-ns#"
   xmlns:svg="http://www.w3.org/2000/svg"
   xmlns="http://www.w3.org/2000/svg"
   id="svg8"
   version="1.1"
   viewBox="0 0 529.16666 79.375002"
   height="300"
   width="2000">
  <defs
     id="defs2" />
  <metadata
     id="metadata5">
    <rdf:RDF>
      <cc:Work
         rdf:about="">
        <dc:format>image/svg+xml</dc:format>
        <dc:type
           rdf:resource="http://purl.org/dc/dcmitype/StillImage" />
        <dc:title></dc:title>
      </cc:Work>
    </rdf:RDF>
  </metadata>
  <g
     transform="translate(0,-217.62499)"
     id="layer1">
    <flowRoot
       transform="matrix(0.26458333,0,0,0.26458333,0,217.62499)"
       style="font-style:normal;font-weight:normal;font-size:40px;line-height:1.25;font-family:sans-serif;letter-spacing:0px;word-spacing:0px;fill:#000000;fill-opacity:1;stroke:none"
       id="flowRoot825"
       xml:space="preserve"><flowRegion
         id="flowRegion827"><rect
           y="-262.65497"
           x="-532.3504"
           height="286.88333"
           width="337.39096"
           id="rect829" /></flowRegion><flowPara
         id="flowPara831"></flowPara></flowRoot>    <path
       id="path833"
       d="m 88.71375,248.83867 v -12.7 h -3.70416 v -1.5875 h 8.99583 v 1.5875 h -3.70417 v 12.7 z"
       style="fill:#b7a261;fill-opacity:1;stroke:#000000;stroke-width:0;stroke-linecap:butt;stroke-linejoin:miter;stroke-miterlimit:4;stroke-dasharray:none;stroke-opacity:1" />
    <path
       id="path835"
       d="m 98.76792,234.55117 h 1.5875 v 5.55625 h 7.67292 v -5.55625 h 1.5875 v 14.2875 h -1.5875 v -7.14375 h -7.67292 v 7.14375 h -1.5875 z"
       style="fill:#b7a261;fill-opacity:1;stroke:#000000;stroke-width:0;stroke-linecap:butt;stroke-linejoin:miter;stroke-miterlimit:4;stroke-dasharray:none;stroke-opacity:1" />
    <path
       id="path837"
       d="m 115.17209,249.10326 v -14.4198 h 8.46666 v 1.45521 h -6.87916 v 4.23334 h 5.5468 v 1.5875 h -5.5468 v 5.71689 l 6.87916,-0.0473 v 1.47416 z"
       style="fill:#b7a261;fill-opacity:1;stroke:#000000;stroke-width:0;stroke-linecap:butt;stroke-linejoin:miter;stroke-miterlimit:4;stroke-dasharray:none;stroke-opacity:1" />
    <path
       id="path839"
       d="m 159.55977,228.89769 a 29.259744,28.804473 0 0 0 -29.25971,28.80444 29.259744,28.804473 0 0 0 29.25971,28.80444 29.259744,28.804473 0 0 0 29.25971,-28.80444 29.259744,28.804473 0 0 0 -29.25971,-28.80444 z m 0.0884,2.50372 a 26.224519,26.11413 0 0 1 26.22424,26.11417 26.224519,26.11413 0 0 1 -26.22424,26.11417 26.224519,26.11413 0 0 1 -26.22476,-26.11417 26.224519,26.11413 0 0 1 26.22476,-26.11417 z"
       style="opacity:1;fill:#b7a261;fill-opacity:1;fill-rule:evenodd;stroke:#5f5f5f;stroke-width:0;stroke-linecap:square;stroke-linejoin:round;stroke-miterlimit:4;stroke-dasharray:none;stroke-opacity:1;paint-order:normal" />
    <path
       id="path843"
       d="m 192.55052,277.28853 1.25677,-3.04271 c 0,0 4.29473,9.39271 15.80886,9.39271 8.86354,0 13.4276,-7.33564 13.4276,-11.57552 0,-3.9026 0.0786,-9.13535 -14.48594,-15.67657 -12.43102,-5.583 -13.19039,-11.70725 -13.16302,-14.94895 0.0486,-5.75451 5.28879,-12.67374 13.5599,-12.76615 7.36088,-0.0822 11.57552,3.9026 11.57552,3.9026 l 2.24896,5.29167 c 0,0 -5.88856,-6.50089 -12.89844,-6.54843 -7.08236,-0.048 -11.77396,5.29166 -11.57552,10.84791 0.19844,5.55625 4.1525,8.77491 13.69219,12.89844 9.22614,3.988 14.08906,9.525 14.02291,16.40416 -0.0661,6.87917 -6.68073,15.27969 -16.20573,14.94896 -9.52499,-0.33073 -12.17083,-2.44739 -17.26406,-9.12812 z"
       style="fill:#b7a261;fill-opacity:1;stroke:#000000;stroke-width:0;stroke-linecap:butt;stroke-linejoin:miter;stroke-miterlimit:4;stroke-dasharray:none;stroke-opacity:1" />
    <path
       id="path845"
       d="m 278.51741,279.3504 c 0,0 -7.44259,4.4523 -16.44762,4.28813 -14.29483,-0.26061 -26.13016,-11.53355 -26.19375,-25.46614 -0.0959,-21.00638 18.97634,-26.67796 26.13563,-26.71489 5.43573,-0.0281 12.60783,2.36657 18.5903,6.76153 l -1.92957,-4.58675 c 0,0 -6.94002,-4.95781 -17.26407,-4.96094 -10.97356,-0.003 -28.40424,8.82104 -28.31844,30.20125 0.0635,15.82377 14.30437,27.66577 29.11219,27.67635 7.73404,0.006 14.61823,-3.24114 14.61823,-3.24114 z"
       style="fill:#b7a261;fill-opacity:1;stroke:#000000;stroke-width:0;stroke-linecap:butt;stroke-linejoin:miter;stroke-miterlimit:4;stroke-dasharray:none;stroke-opacity:1" />
    <path
       id="path847"
       d="m 284.26417,286.47011 28.32788,-63.72638 28.33258,63.71503 -3.14175,-0.0273 -25.14738,-57.62331 -25.12468,57.71685 z"
       style="fill:#b7a261;fill-opacity:1;stroke:#000000;stroke-width:0;stroke-linecap:butt;stroke-linejoin:miter;stroke-miterlimit:4;stroke-dasharray:none;stroke-opacity:1" />
    <path
       id="path849"
       d="m 347.75345,228.71475 -0.0935,57.70191 h 2.89957 l 0.0935,-27.58075 h 7.59282 l 17.47749,27.58075 h 3.82147 l -17.94671,-27.76782 c 3.77773,0.012 14.1448,-3.05073 14.12524,-14.49937 -0.0213,-12.49027 -10.01984,-15.29367 -15.3417,-15.24765 -4.2098,0.0364 -12.62817,-0.18707 -12.62817,-0.18707 z m 12.02019,2.80603 c 5.42557,0.14032 13.00058,2.98801 12.90928,11.74005 -0.10286,9.86075 -5.80095,12.27709 -13.61081,12.81528 -3.00819,0.20731 -8.32553,0.0468 -8.32553,0.0468 l -0.0468,-24.55539 c 0,0 7.95167,-0.0758 9.07383,-0.0468 z"
       style="opacity:1;fill:#b7a261;fill-opacity:1;stroke:#000000;stroke-width:0;stroke-linecap:butt;stroke-linejoin:miter;stroke-miterlimit:4;stroke-dasharray:none;stroke-opacity:1" />
    <path
       id="path867"
       d="m 302.79258,286.49575 2.2023,-5.44602 2.80679,-0.0853 c 0.18472,-0.27672 0.42637,-0.68572 0.4439,-0.8136 0.22188,-0.23868 1.05589,-0.22399 2.47228,-0.31374 0.56649,-0.47369 0.58905,-1.15586 0.59733,-1.50641 0.025,-1.05869 -0.25639,-1.7845 -0.4476,-2.5044 -0.12296,-0.46296 -0.27825,-1.05772 -0.28774,-1.44935 -0.0189,-0.77954 0.22846,-1.80609 0.22628,-2.831 -0.003,-1.28495 -0.60657,-1.91788 -0.65385,-4.05344 -0.026,-1.17582 0.0111,-2.01752 0.19182,-3.45977 l -0.0451,-0.5968 c -0.0131,-0.17323 -0.18195,-0.29601 -0.36987,-0.37676 -0.3631,-0.15601 -0.63333,-0.41388 -0.79863,-1.06569 -0.23417,-0.91906 -0.3691,-1.90429 -0.5222,-2.87741 -0.0982,-0.37654 -0.19414,-0.75309 -0.18116,-1.12964 -0.002,-0.44149 0.13135,-0.8153 0.29839,-1.17228 0.10955,-0.39855 0.56687,-0.52311 1.17549,-0.8209 l 1.3822,-0.82028 c 0.60571,-0.35945 0.30193,-0.99628 0.27202,-1.17228 -0.0999,-0.58768 -0.26234,-1.14415 -0.29333,-1.91825 -0.0516,-1.28953 0.6626,-1.71762 1.42804,-1.70513 0.83843,0.0137 1.14502,0.33859 1.31081,0.68205 0.10674,0.22113 0.20761,0.27653 0.18117,1.65184 -0.0627,0.61392 -0.16567,1.15394 -0.2984,1.77972 -0.0344,0.16232 0.0194,0.45318 0.40486,0.72586 0.5658,0.40032 1.18857,0.86227 1.77984,1.08583 0.26416,0.0992 0.43028,0.23656 0.60745,0.72468 0.21283,0.58641 0.25095,1.33634 0.0126,2.03614 -0.24112,0.90985 -0.4712,2.5654 -0.56677,2.90874 -0.0558,0.20037 -0.0748,0.29196 -0.0921,0.51636 -0.0296,0.38395 -0.62729,0.79194 -0.99393,0.9598 -0.0189,0.048 -0.0633,0.10824 -0.10756,0.12238 l -0.0853,0.66075 c 0.16751,0.85303 0.28828,2.11206 0.26642,3.11184 -0.0289,1.32179 -0.2772,2.15992 -0.52219,3.36762 -0.0609,0.30021 -0.0614,0.60028 -0.0533,1.01242 0.0153,0.77976 0.20009,1.4679 0.15985,2.55769 -0.0627,1.69867 -0.64978,2.57194 -0.66073,3.67667 -0.006,0.61184 0.0235,1.35606 0.49022,1.72645 l 0.29325,0.1988 c 0.67507,0.0551 1.75745,0.01 2.00059,0.18264 l 0.74892,0.84448 c 0,0 1.89809,0.0317 2.74507,0.0515 l 2.41542,5.60037 z"
       style="opacity:1;fill:#b7a261;fill-opacity:1;stroke:#000000;stroke-width:0;stroke-linecap:butt;stroke-linejoin:miter;stroke-miterlimit:4;stroke-dasharray:none;stroke-opacity:1" />
    <path
       style="fill:#b7a261;fill-opacity:1;stroke:#000000;stroke-width:0;stroke-linecap:butt;stroke-linejoin:miter;stroke-miterlimit:4;stroke-dasharray:none;stroke-opacity:1"
       d="m 382.26975,277.31641 1.25677,-3.04271 c 0,0 4.29474,9.39271 15.80886,9.39271 8.86354,0 13.4276,-7.33564 13.4276,-11.57552 0,-3.9026 0.0786,-9.13535 -14.48593,-15.67657 -12.43102,-5.583 -13.1904,-11.70725 -13.16302,-14.94895 0.0486,-5.75451 5.28879,-12.67374 13.55989,-12.76615 7.36088,-0.0822 11.57552,3.9026 11.57552,3.9026 l 2.24896,5.29167 c 0,0 -5.88856,-6.50089 -12.89844,-6.54843 -7.08235,-0.048 -11.77395,5.29166 -11.57552,10.84791 0.19844,5.55625 4.1525,8.77491 13.69219,12.89844 9.22614,3.988 14.08906,9.525 14.02292,16.40416 -0.0662,6.87917 -6.68073,15.27969 -16.20573,14.94896 -9.525,-0.33073 -12.17083,-2.44739 -17.26407,-9.12812 z"
       id="path872" />
  </g>
</svg>
