<?xml version="1.0" encoding="UTF-8" standalone="no"?>
<svg
   xmlns:dc="http://purl.org/dc/elements/1.1/"
   xmlns:cc="http://creativecommons.org/ns#"
   xmlns:rdf="http://www.w3.org/1999/02/22-rdf-syntax-ns#"
   xmlns:svg="http://www.w3.org/2000/svg"
   xmlns="http://www.w3.org/2000/svg"
   id="svg8"
   version="1.1"
   viewBox="0 0 507.99999 52.916668"
   height="200"
   width="1920">
  <defs
     id="defs2" />
  <metadata
     id="metadata5">
    <rdf:RDF>
      <cc:Work
         rdf:about="">
        <dc:format>image/svg+xml</dc:format>
        <dc:type
           rdf:resource="http://purl.org/dc/dcmitype/StillImage" />
        <dc:title></dc:title>
      </cc:Work>
    </rdf:RDF>
  </metadata>
  <g
     transform="translate(0,-244.08332)"
     id="layer1">
    <flowRoot
       transform="matrix(0.26458333,0,0,0.26458333,0,217.62499)"
       style="font-style:normal;font-weight:normal;font-size:40px;line-height:1.25;font-family:sans-serif;letter-spacing:0px;word-spacing:0px;fill:#000000;fill-opacity:1;stroke:none"
       id="flowRoot825"
       xml:space="preserve"><flowRegion
         id="flowRegion827"><rect
           y="-262.65497"
           x="-532.3504"
           height="286.88333"
           width="337.39096"
           id="rect829" /></flowRegion><flowPara
         id="flowPara831"></flowPara></flowRoot>    <path
       id="path833"
       d="m 119.6346,265.75075 v -9.85674 h -2.8749 v -1.2321 h 6.9819 v 1.2321 h -2.8749 v 9.85674 z"
       style="fill:#b7a261;fill-opacity:1;stroke:#000000;stroke-width:0;stroke-linecap:butt;stroke-linejoin:miter;stroke-miterlimit:4;stroke-dasharray:none;stroke-opacity:1" />
    <path
       id="path835"
       d="m 127.4379,254.66191 h 1.23211 v 4.31233 h 5.95514 v -4.31233 h 1.23209 v 11.08884 h -1.23209 v -5.54442 h -5.95514 v 5.54442 h -1.23211 z"
       style="fill:#b7a261;fill-opacity:1;stroke:#000000;stroke-width:0;stroke-linecap:butt;stroke-linejoin:miter;stroke-miterlimit:4;stroke-dasharray:none;stroke-opacity:1" />
    <path
       id="path837"
       d="m 140.16957,265.95611 v -11.19152 h 6.57116 v 1.12942 h -5.33907 v 3.28558 h 4.30499 v 1.2321 h -4.30499 v 4.437 l 5.33907,-0.0367 v 1.14413 z"
       style="fill:#b7a261;fill-opacity:1;stroke:#000000;stroke-width:0;stroke-linecap:butt;stroke-linejoin:miter;stroke-miterlimit:4;stroke-dasharray:none;stroke-opacity:1" />
    <path
       id="path839"
       d="m 174.61982,250.27412 a 22.709127,22.355781 0 0 0 -22.70911,22.35576 22.709127,22.355781 0 0 0 22.70911,22.35575 22.709127,22.355781 0 0 0 22.7091,-22.35575 22.709127,22.355781 0 0 0 -22.7091,-22.35576 z m 0.0686,1.94319 a 20.353423,20.267747 0 0 1 20.35321,20.26778 20.353423,20.267747 0 0 1 -20.35321,20.26778 20.353423,20.267747 0 0 1 -20.35361,-20.26778 20.353423,20.267747 0 0 1 20.35361,-20.26778 z"
       style="opacity:1;fill:#b7a261;fill-opacity:1;fill-rule:evenodd;stroke:#5f5f5f;stroke-width:0;stroke-linecap:square;stroke-linejoin:round;stroke-miterlimit:4;stroke-dasharray:none;stroke-opacity:1;paint-order:normal" />
    <path
       id="path843"
       d="m 200.22466,287.83131 0.9754,-2.36151 c 0,0 3.33324,7.28989 12.26961,7.28989 6.87918,0 10.42145,-5.69336 10.42145,-8.98402 0,-3.02889 0.061,-7.09014 -11.24285,-12.16693 -9.64799,-4.33309 -10.23735,-9.08625 -10.21611,-11.6022 0.0377,-4.46621 4.10474,-9.83637 10.52413,-9.90809 5.71294,-0.0638 8.98402,3.02889 8.98402,3.02889 l 1.74546,4.10698 c 0,0 -4.57024,-5.04548 -10.01076,-5.08238 -5.49677,-0.0373 -9.13803,4.10697 -8.98401,8.4193 0.15401,4.31233 3.22284,6.8104 10.62681,10.01076 7.16061,3.09518 10.93482,7.39256 10.88348,12.73163 -0.0513,5.33907 -5.18506,11.8589 -12.57762,11.60222 -7.39255,-0.25669 -9.44605,-1.89948 -13.39901,-7.08454 z"
       style="fill:#b7a261;fill-opacity:1;stroke:#000000;stroke-width:0;stroke-linecap:butt;stroke-linejoin:miter;stroke-miterlimit:4;stroke-dasharray:none;stroke-opacity:1" />
    <path
       id="path845"
       d="m 266.94544,289.43157 c 0,0 -5.77636,3.45553 -12.76536,3.32812 -11.09453,-0.20227 -20.28019,-8.95144 -20.32954,-19.76483 -0.0744,-16.30351 14.72795,-20.70535 20.28444,-20.73401 4.21878,-0.0218 9.78521,1.83674 14.42833,5.24777 l -1.49758,-3.55988 c 0,0 -5.3863,-3.84786 -13.39902,-3.85029 -8.51682,-0.002 -22.04515,6.8462 -21.97856,23.43985 0.0493,12.28117 11.10193,21.47201 22.59461,21.48022 6.00255,0.005 11.34552,-2.51552 11.34552,-2.51552 z"
       style="fill:#b7a261;fill-opacity:1;stroke:#000000;stroke-width:0;stroke-linecap:butt;stroke-linejoin:miter;stroke-miterlimit:4;stroke-dasharray:none;stroke-opacity:1" />
    <path
       id="path847"
       d="m 271.40563,294.95734 21.98588,-49.45944 21.98954,49.45063 -2.43838,-0.0212 -19.51743,-44.72271 -19.49982,44.79531 z"
       style="fill:#b7a261;fill-opacity:1;stroke:#000000;stroke-width:0;stroke-linecap:butt;stroke-linejoin:miter;stroke-miterlimit:4;stroke-dasharray:none;stroke-opacity:1" />
    <path
       id="path849"
       d="m 320.68105,250.13214 -0.0726,44.78371 h 2.25042 l 0.0726,-21.40602 h 5.89296 l 13.56466,21.40602 h 2.96593 l -13.92885,-21.55121 c 2.93198,0.009 10.97809,-2.36774 10.96291,-11.25328 -0.0165,-9.69397 -7.77662,-11.86975 -11.90703,-11.83403 -3.26732,0.0282 -9.801,-0.14519 -9.801,-0.14519 z m 9.32913,2.17782 c 4.2109,0.10891 10.09003,2.31906 10.01917,9.11171 -0.0798,7.65314 -4.50224,9.52852 -10.56365,9.94622 -2.33472,0.1609 -6.46162,0.0363 -6.46162,0.0363 l -0.0363,-19.05797 c 0,0 6.17146,-0.0588 7.04239,-0.0363 z"
       style="opacity:1;fill:#b7a261;fill-opacity:1;stroke:#000000;stroke-width:0;stroke-linecap:butt;stroke-linejoin:miter;stroke-miterlimit:4;stroke-dasharray:none;stroke-opacity:1" />
    <path
       id="path867"
       d="m 285.78593,294.97724 1.70925,-4.22678 2.17842,-0.0662 c 0.14336,-0.21477 0.33091,-0.5322 0.34452,-0.63145 0.1722,-0.18525 0.8195,-0.17385 1.91879,-0.24351 0.43966,-0.36764 0.45717,-0.89708 0.4636,-1.16915 0.0194,-0.82168 -0.19899,-1.38499 -0.34739,-1.94372 -0.0954,-0.35932 -0.21596,-0.82092 -0.22333,-1.12487 -0.0147,-0.60502 0.17732,-1.40175 0.17562,-2.19721 -0.002,-0.99727 -0.47077,-1.4885 -0.50746,-3.14596 -0.0202,-0.91258 0.009,-1.56584 0.14887,-2.6852 l -0.035,-0.46319 c -0.0102,-0.13445 -0.14122,-0.22974 -0.28706,-0.29241 -0.28181,-0.12109 -0.49155,-0.32122 -0.61984,-0.82711 -0.18174,-0.7133 -0.28647,-1.47796 -0.40529,-2.23322 -0.0762,-0.29224 -0.15068,-0.58449 -0.1406,-0.87674 -0.002,-0.34265 0.10194,-0.63277 0.23159,-0.90983 0.085,-0.30932 0.43996,-0.406 0.91232,-0.63712 l 1.07275,-0.63664 c 0.47011,-0.27897 0.23434,-0.77323 0.21113,-0.90983 -0.0775,-0.45611 -0.20361,-0.888 -0.22766,-1.48879 -0.0401,-1.00084 0.51425,-1.33309 1.10833,-1.32339 0.65072,0.0106 0.88867,0.26278 1.01735,0.52935 0.0828,0.17163 0.16113,0.21462 0.14061,1.28203 -0.0487,0.47648 -0.12858,0.8956 -0.2316,1.38128 -0.0267,0.12598 0.0151,0.35172 0.31422,0.56336 0.43913,0.31069 0.92248,0.66922 1.38138,0.84273 0.20502,0.077 0.33395,0.1836 0.47145,0.56244 0.16518,0.45513 0.19477,1.03717 0.01,1.5803 -0.18714,0.70615 -0.36571,1.99106 -0.43988,2.25753 -0.0433,0.15551 -0.0581,0.2266 -0.0715,0.40076 -0.023,0.29799 -0.48686,0.61464 -0.77141,0.74492 -0.0147,0.0373 -0.0491,0.084 -0.0835,0.095 l -0.0662,0.51283 c 0.13001,0.66205 0.22374,1.63921 0.20678,2.41516 -0.0224,1.02587 -0.21514,1.67636 -0.40529,2.61369 -0.0473,0.233 -0.0477,0.46589 -0.0414,0.78576 0.0119,0.60519 0.15529,1.13927 0.12406,1.98508 -0.0487,1.31837 -0.50431,1.99614 -0.51281,2.85354 -0.005,0.47486 0.0182,1.05247 0.38047,1.33994 l 0.2276,0.15429 c 0.52394,0.0428 1.364,0.008 1.5527,0.14175 l 0.58126,0.65542 c 0,0 1.47314,0.0246 2.1305,0.04 l 1.87466,4.34657 z"
       style="opacity:1;fill:#b7a261;fill-opacity:1;stroke:#000000;stroke-width:0;stroke-linecap:butt;stroke-linejoin:miter;stroke-miterlimit:4;stroke-dasharray:none;stroke-opacity:1" />
    <path
       style="fill:#b7a261;fill-opacity:1;stroke:#000000;stroke-width:0;stroke-linecap:butt;stroke-linejoin:miter;stroke-miterlimit:4;stroke-dasharray:none;stroke-opacity:1"
       d="m 347.4699,287.85295 0.97541,-2.36151 c 0,0 3.33324,7.28988 12.2696,7.28988 6.87919,0 10.42145,-5.69335 10.42145,-8.98401 0,-3.02889 0.061,-7.09015 -11.24284,-12.16693 -9.64799,-4.33309 -10.23736,-9.08625 -10.21611,-11.60221 0.0377,-4.4662 4.10474,-9.83636 10.52413,-9.90808 5.71294,-0.0638 8.98401,3.02889 8.98401,3.02889 l 1.74547,4.10698 c 0,0 -4.57024,-5.04548 -10.01076,-5.08238 -5.49677,-0.0373 -9.13802,4.10697 -8.98402,8.4193 0.15401,4.31233 3.22285,6.8104 10.62681,10.01076 7.16061,3.09518 10.93483,7.39256 10.88349,12.73163 -0.0514,5.33907 -5.18506,11.8589 -12.57762,11.60221 -7.39256,-0.25668 -9.44604,-1.89947 -13.39902,-7.08453 z"
       id="path872" />
  </g>
</svg>
